<?xml version="1.0" encoding="UTF-8"?>
<svg width="38px" height="38px" viewBox="0 0 38 38" version="1.1" xmlns="http://www.w3.org/2000/svg" xmlns:xlink="http://www.w3.org/1999/xlink">
    <!-- Generator: Sketch 48.2 (47327) - http://www.bohemiancoding.com/sketch -->
    <title>ppt copy</title>
    <desc>Created with Sketch.</desc>
    <defs>
        <linearGradient x1="50%" y1="0%" x2="50%" y2="100%" id="linearGradient-1">
            <stop stop-color="#000000" stop-opacity="0.12" offset="0%"></stop>
            <stop stop-color="#000000" stop-opacity="0" offset="100%"></stop>
        </linearGradient>
        <linearGradient x1="77.8846154%" y1="50%" x2="-50.9634165%" y2="50%" id="linearGradient-2">
            <stop stop-color="#FFFFFF" offset="0%"></stop>
            <stop stop-color="#FFFFFF" stop-opacity="0" offset="100%"></stop>
        </linearGradient>
    </defs>
    <g id="跟进回访3" stroke="none" stroke-width="1" fill="none" fill-rule="evenodd" transform="translate(-368.000000, -502.000000)">
        <g id="Group-13" transform="translate(270.000000, 283.000000)">
            <g id="Group-11">
                <g id="Group-12" transform="translate(96.000000, 165.000000)">
                    <g id="2" transform="translate(0.000000, 52.000000)">
                        <g id="ppt-copy" transform="translate(2.000000, 2.000000)">
                            <g id="ppt">
                                <rect id="Rectangle-11" fill="#FF721E" x="0" y="0" width="38" height="38" rx="4"></rect>
                                <path d="M12,9 L16.96875,9 L16.96875,11.1873779 C17.4270833,10.6249593 18.0104167,10.1458333 18.71875,9.75 C19.4270833,9.35416667 20.2395833,9.10416667 21.15625,9 C23.03125,9 24.6041667,9.64583333 25.875,10.9375 C27.1458333,12.2291667 27.8541667,13.90625 28,15.96875 L28,29 L12,29 L12,9 Z" id="Rectangle-13" fill="url(#linearGradient-1)"></path>
                                <rect id="Rectangle-14" fill="#FFFFFF" x="12" y="9" width="5" height="20"></rect>
                                <path d="M21.5,24 C17.9101491,24 15,20.6421356 15,16.5 C15,12.3578644 17.9101491,9 21.5,9 C25.0898509,9 28,12.3578644 28,16.5 C28,20.6421356 25.0898509,24 21.5,24 Z M20,20 C21.6568542,20 23,18.4329966 23,16.5 C23,14.5670034 21.6568542,13 20,13 C18.3431458,13 17,14.5670034 17,16.5 C17,18.4329966 18.3431458,20 20,20 Z" id="Combined-Shape" fill="url(#linearGradient-2)"></path>
                            </g>
                        </g>
                    </g>
                </g>
            </g>
        </g>
    </g>
</svg>