<?xml version="1.0" encoding="UTF-8"?>
<svg width="38px" height="38px" viewBox="0 0 38 38" version="1.1" xmlns="http://www.w3.org/2000/svg" xmlns:xlink="http://www.w3.org/1999/xlink">
    <!-- Generator: Sketch 48.2 (47327) - http://www.bohemiancoding.com/sketch -->
    <title>word copy 8</title>
    <desc>Created with Sketch.</desc>
    <defs>
        <linearGradient x1="50%" y1="0%" x2="50%" y2="100%" id="linearGradient-1">
            <stop stop-color="#000000" stop-opacity="0.12" offset="0%"></stop>
            <stop stop-color="#000000" stop-opacity="0" offset="100%"></stop>
        </linearGradient>
        <linearGradient x1="107.142857%" y1="39.1304348%" x2="-24.6753247%" y2="62.173913%" id="linearGradient-2">
            <stop stop-color="#FFFFFF" offset="0%"></stop>
            <stop stop-color="#FFFFFF" stop-opacity="0" offset="100%"></stop>
        </linearGradient>
    </defs>
    <g id="跟进回访3" stroke="none" stroke-width="1" fill="none" fill-rule="evenodd" transform="translate(-368.000000, -450.000000)">
        <g id="Group-13" transform="translate(270.000000, 283.000000)">
            <g id="Group-11">
                <g id="Group-12" transform="translate(96.000000, 165.000000)">
                    <g id="1">
                        <g id="word-copy-8" transform="translate(2.000000, 2.000000)">
                            <g id="word">
                                <rect id="Rectangle-9" fill="#20A0FF" x="0" y="0" width="38" height="38" rx="4"></rect>
                                <polygon id="Rectangle-10" fill="url(#linearGradient-1)" style="mix-blend-mode: multiply;" points="7 11 12.1252441 11 14.5625 19 17.1875 11 21.9375 11 24.5 19 27.125 11 32 11 32 27 7 27"></polygon>
                                <g id="Group-12" transform="translate(7.000000, 11.000000)">
                                    <polygon id="w" fill="url(#linearGradient-2)" points="14.9998779 0 10.0666667 0 5.03125 16 10.0666667 16"></polygon>
                                    <polygon id="w" fill="url(#linearGradient-2)" points="24.9686279 0 20.0354167 0 15 16 20.0354167 16"></polygon>
                                    <polygon id="w" fill="#FFFFFF" points="5.075 0 0 0 4.9375 16 10.03125 16"></polygon>
                                    <polygon id="w" fill="#FFFFFF" points="15.075 0 10 0 14.9375 16 20.03125 16"></polygon>
                                </g>
                            </g>
                        </g>
                    </g>
                </g>
            </g>
        </g>
    </g>
</svg>