<!-- Generated by IcoMoon.io -->
<svg version="1.1" xmlns="http://www.w3.org/2000/svg" width="32" height="32" viewBox="0 0 32 32">
<title>blockquote</title>
<path fill="#666" d="M1.143 20.571c0 3.787 3.070 6.857 6.857 6.857s6.857-3.070 6.857-6.857c0-3.787-3.070-6.857-6.857-6.857-0.355 0-0.704 0.027-1.044 0.079 0.895-2.227 2.29-4.214 4.229-5.813 0.965-0.795 1.524-2.153 0.787-3.133s-2.321-0.788-3.307 0c-4.858 3.878-7.521 9.386-7.521 15.724z"></path>
<path fill="#666" d="M17.143 20.571c0 3.787 3.070 6.857 6.857 6.857s6.857-3.070 6.857-6.857c0-3.787-3.070-6.857-6.857-6.857-0.355 0-0.704 0.027-1.044 0.079 0.895-2.227 2.29-4.214 4.229-5.813 0.965-0.795 1.524-2.153 0.787-3.133s-2.321-0.788-3.307 0c-4.858 3.878-7.521 9.386-7.521 15.724z"></path>
</svg>
