<!-- Generated by IcoMoon.io -->
<svg version="1.1" xmlns="http://www.w3.org/2000/svg" width="32" height="32" viewBox="0 0 32 32">
<title>bold</title>
<path fill="#666" d="M8.571 13.445h8.393c1.234 0 2.263-0.35 3.086-1.049s1.234-1.707 1.234-3.024c0-1.481-0.37-2.523-1.111-3.127s-1.81-0.905-3.209-0.905h-8.393v8.105zM3.429 1.143h14.277c2.633 0 4.745 0.603 6.336 1.81s2.386 3.031 2.386 5.472c0 1.481-0.363 2.75-1.090 3.806s-1.762 1.872-3.106 2.448v0.082c1.81 0.384 3.182 1.241 4.114 2.571s1.399 2.997 1.399 4.999c0 1.152-0.206 2.229-0.617 3.23s-1.056 1.865-1.934 2.592c-0.878 0.727-2.002 1.303-3.374 1.728s-3.003 0.638-4.896 0.638h-13.495v-29.376zM8.571 26.322h9.093c1.563 0 2.777-0.405 3.641-1.214s1.296-1.954 1.296-3.435c0-1.454-0.432-2.571-1.296-3.353s-2.078-1.173-3.641-1.173h-9.093v9.175z"></path>
</svg>
