<!-- Generated by IcoMoon.io -->
<svg version="1.1" xmlns="http://www.w3.org/2000/svg" width="32" height="32" viewBox="0 0 32 32">
<title>divider</title>
<path fill="#666" d="M2.286 2.286h27.429c1.262 0 2.286 1.023 2.286 2.286v0c0 1.262-1.023 2.286-2.286 2.286h-27.429c-1.262 0-2.286-1.023-2.286-2.286v0 0c0-1.262 1.023-2.286 2.286-2.286v0zM2.286 25.143h27.429c1.262 0 2.286 1.023 2.286 2.286s-1.023 2.286-2.286 2.286h-27.429c-1.262 0-2.286-1.023-2.286-2.286s1.023-2.286 2.286-2.286v0zM2.286 13.714h4.571c1.262 0 2.286 1.023 2.286 2.286s-1.023 2.286-2.286 2.286h-4.571c-1.262 0-2.286-1.023-2.286-2.286s1.023-2.286 2.286-2.286v0zM13.714 13.714h4.571c1.262 0 2.286 1.023 2.286 2.286s-1.023 2.286-2.286 2.286h-4.571c-1.262 0-2.286-1.023-2.286-2.286s1.023-2.286 2.286-2.286zM25.143 13.714h4.571c1.262 0 2.286 1.023 2.286 2.286s-1.023 2.286-2.286 2.286h-4.571c-1.262 0-2.286-1.023-2.286-2.286s1.023-2.286 2.286-2.286z"></path>
</svg>
