<!-- Generated by IcoMoon.io -->
<svg version="1.1" xmlns="http://www.w3.org/2000/svg" width="32" height="32" viewBox="0 0 32 32">
<title>indent</title>
<path fill="#666" d="M23.331 13.714h-5.045c-1.262 0-2.286 1.023-2.286 2.286s1.023 2.286 2.286 2.286h5.207l-1.028 1.028c-0.893 0.893-0.893 2.34 0 3.233v0c0.893 0.893 2.34 0.893 3.233 0l4.849-4.849c0.446-0.446 0.669-1.031 0.669-1.616s-0.223-1.17-0.669-1.616l-4.849-4.849c-0.893-0.893-2.34-0.893-3.233 0s-0.893 2.34 0 3.232l0.866 0.866zM2.286 0h27.429c1.262 0 2.286 1.023 2.286 2.286v0c0 1.262-1.023 2.286-2.286 2.286h-27.429c-1.262 0-2.286-1.023-2.286-2.286v0 0c0-1.262 1.023-2.286 2.286-2.286v0zM2.286 18.286h11.429c1.262 0 2.286 1.023 2.286 2.286s-1.023 2.286-2.286 2.286h-11.429c-1.262 0-2.286-1.023-2.286-2.286s1.023-2.286 2.286-2.286v0zM2.286 27.429h27.429c1.262 0 2.286 1.023 2.286 2.286s-1.023 2.286-2.286 2.286h-27.429c-1.262 0-2.286-1.023-2.286-2.286s1.023-2.286 2.286-2.286v0zM2.286 9.143h11.429c1.262 0 2.286 1.023 2.286 2.286s-1.023 2.286-2.286 2.286h-11.429c-1.262 0-2.286-1.023-2.286-2.286s1.023-2.286 2.286-2.286v0z"></path>
</svg>
