<?xml version="1.0" encoding="UTF-8"?>
<svg width="14px" height="15px" viewBox="0 0 14 15" version="1.1" xmlns="http://www.w3.org/2000/svg" xmlns:xlink="http://www.w3.org/1999/xlink">
    <!-- Generator: Sketch 46.2 (44496) - http://www.bohemiancoding.com/sketch -->
    <title>有序列表</title>
    <desc>Created with Sketch.</desc>
    <defs></defs>
    <g id="Page-1" stroke="none" stroke-width="1" fill="none" fill-rule="evenodd">
        <g id="29.文本编辑" transform="translate(-288.000000, -266.000000)">
            <g id="文本编辑器" transform="translate(73.000000, 190.000000)">
                <g id="文本编辑器2" transform="translate(129.000000, 66.000000)">
                    <g id="有序列表" transform="translate(85.000000, 10.000000)">
                        <g transform="translate(0.000000, -1.000000)">
                            <rect id="Rectangle-16" fill-opacity="0" fill="#D8D8D8" x="0" y="1" width="16" height="16"></rect>
                            <path d="M6,3 L14,3 C14.5522847,3 15,3.44771525 15,4 L15,4 C15,4.55228475 14.5522847,5 14,5 L6,5 C5.44771525,5 5,4.55228475 5,4 L5,4 L5,4 C5,3.44771525 5.44771525,3 6,3 L6,3 Z M6,8 L14,8 C14.5522847,8 15,8.44771525 15,9 C15,9.55228475 14.5522847,10 14,10 L6,10 C5.44771525,10 5,9.55228475 5,9 C5,8.44771525 5.44771525,8 6,8 L6,8 Z M6,13 L14,13 C14.5522847,13 15,13.4477153 15,14 C15,14.5522847 14.5522847,15 14,15 L6,15 C5.44771525,15 5,14.5522847 5,14 C5,13.4477153 5.44771525,13 6,13 L6,13 Z" id="Combined-Shape" fill="#666666"></path>
                            <path d="M1.34667969,3.05859375 L1.34667969,2.58496094 C1.56640735,2.57519526 1.7202144,2.56054697 1.80810547,2.54101562 C1.94808013,2.51009099 2.06201128,2.44824265 2.14990234,2.35546875 C2.210124,2.29199187 2.25569646,2.2073573 2.28662109,2.1015625 C2.30452483,2.03808562 2.31347656,1.99088557 2.31347656,1.95996094 L2.89208984,1.95996094 L2.89208984,5.5 L2.17919922,5.5 L2.17919922,3.05859375 L1.34667969,3.05859375 Z" id="1" fill="#666666"></path>
                            <path d="M1.31982422,9.80419922 C1.41910857,9.56819543 1.65348123,9.31836069 2.02294922,9.0546875 C2.34358884,8.82519417 2.5511063,8.66080779 2.64550781,8.56152344 C2.79036531,8.40690027 2.86279297,8.23763113 2.86279297,8.05371094 C2.86279297,7.90397061 2.82128948,7.77946013 2.73828125,7.68017578 C2.65527302,7.58089143 2.53645911,7.53125 2.38183594,7.53125 C2.17024634,7.53125 2.02620481,7.61018801 1.94970703,7.76806641 C1.9057615,7.8592127 1.87972009,8.00406802 1.87158203,8.20263672 L1.1953125,8.20263672 C1.20670579,7.90152844 1.26122998,7.65820405 1.35888672,7.47265625 C1.54443452,7.11946438 1.87402107,6.94287109 2.34765625,6.94287109 C2.72200708,6.94287109 3.01985566,7.04662982 3.24121094,7.25415039 C3.46256621,7.46167096 3.57324219,7.73632642 3.57324219,8.078125 C3.57324219,8.34017058 3.49511797,8.57291565 3.33886719,8.77636719 C3.23632761,8.91145901 3.06787227,9.06201089 2.83349609,9.22802734 L2.55517578,9.42578125 C2.38102126,9.54947979 2.26180045,9.63899712 2.19750977,9.69433594 C2.13321908,9.74967476 2.07910178,9.81396448 2.03515625,9.88720703 L3.58056641,9.88720703 L3.58056641,10.5 L1.15625,10.5 C1.16276045,10.2460925 1.21728464,10.0141612 1.31982422,9.80419922 Z" id="2" fill="#666666"></path>
                            <path d="M1.81542969,14.4135742 C1.81542969,14.5551765 1.83821592,14.6723628 1.88378906,14.7651367 C1.9684249,14.936036 2.12223196,15.0214844 2.34521484,15.0214844 C2.48193428,15.0214844 2.60115509,14.9746912 2.70288086,14.8811035 C2.80460663,14.7875158 2.85546875,14.6528329 2.85546875,14.4770508 C2.85546875,14.2443022 2.76106865,14.0888676 2.57226562,14.0107422 C2.46484321,13.9667967 2.29557407,13.9448242 2.06445312,13.9448242 L2.06445312,13.4467773 C2.29069124,13.4435221 2.44856726,13.4215497 2.53808594,13.3808594 C2.69270911,13.3124997 2.77001953,13.1741547 2.77001953,12.9658203 C2.77001953,12.8307285 2.73055052,12.7208663 2.65161133,12.6362305 C2.57267213,12.5515946 2.46158926,12.5092773 2.31835938,12.5092773 C2.15397053,12.5092773 2.03312213,12.5613602 1.95581055,12.6655273 C1.87849896,12.7696945 1.84147134,12.9088533 1.84472656,13.0830078 L1.1953125,13.0830078 C1.20182295,12.9072257 1.23193333,12.7403979 1.28564453,12.5825195 C1.34261096,12.4441725 1.4321283,12.3164068 1.55419922,12.1992188 C1.64534551,12.1162105 1.7535801,12.0527346 1.87890625,12.0087891 C2.0042324,11.9648435 2.15803945,11.9428711 2.34033203,11.9428711 C2.67887539,11.9428711 2.95190326,12.0303539 3.15942383,12.2053223 C3.3669444,12.3802906 3.47070312,12.6150701 3.47070312,12.909668 C3.47070312,13.1180023 3.40885479,13.2937818 3.28515625,13.4370117 C3.20703086,13.5265304 3.12565146,13.5875649 3.04101562,13.6201172 C3.1044925,13.6201172 3.19563743,13.6746414 3.31445312,13.7836914 C3.49186287,13.9480802 3.58056641,14.1726874 3.58056641,14.4575195 C3.58056641,14.7570002 3.47680768,15.0202625 3.26928711,15.2473145 C3.06176654,15.4743664 2.75455933,15.5878906 2.34765625,15.5878906 C1.84635166,15.5878906 1.49804785,15.424318 1.30273438,15.097168 C1.2001948,14.9230135 1.14322922,14.6951511 1.13183594,14.4135742 L1.81542969,14.4135742 Z" id="3" fill="#666666"></path>
                        </g>
                    </g>
                </g>
            </g>
        </g>
    </g>
</svg>