<!-- Generated by IcoMoon.io -->
<svg version="1.1" xmlns="http://www.w3.org/2000/svg" width="32" height="32" viewBox="0 0 32 32">
<title>video</title>
<path fill="#666" d="M2 4h28c1.105 0 2 0.895 2 2v20c0 1.105-0.895 2-2 2h-28c-1.105 0-2-0.895-2-2v-20c0-1.105 0.895-2 2-2v0zM21.504 17.664c0.22-0.146 0.408-0.335 0.555-0.555 0.613-0.919 0.364-2.161-0.555-2.774v0l-6.394-4.263c-0.329-0.219-0.715-0.336-1.109-0.336-1.105 0-2 0.895-2 2v8.526c0 0.395 0.117 0.781 0.336 1.109 0.613 0.919 1.854 1.167 2.774 0.555l6.394-4.263z"></path>
</svg>
