<!-- Generated by IcoMoon.io -->
<svg version="1.1" xmlns="http://www.w3.org/2000/svg" width="32" height="32" viewBox="0 0 32 32">
<title>unorderedlist</title>
<path fill="#666" d="M11.429 2.286h18.286c1.262 0 2.286 1.023 2.286 2.286v0c0 1.262-1.023 2.286-2.286 2.286h-18.286c-1.262 0-2.286-1.023-2.286-2.286v0 0c0-1.262 1.023-2.286 2.286-2.286zM2.286 6.857c-1.262 0-2.286-1.023-2.286-2.286s1.023-2.286 2.286-2.286c1.262 0 2.286 1.023 2.286 2.286s-1.023 2.286-2.286 2.286zM2.286 18.286c-1.262 0-2.286-1.023-2.286-2.286s1.023-2.286 2.286-2.286c1.262 0 2.286 1.023 2.286 2.286s-1.023 2.286-2.286 2.286zM2.286 29.714c-1.262 0-2.286-1.023-2.286-2.286s1.023-2.286 2.286-2.286c1.262 0 2.286 1.023 2.286 2.286s-1.023 2.286-2.286 2.286zM11.429 13.714h18.286c1.262 0 2.286 1.023 2.286 2.286s-1.023 2.286-2.286 2.286h-18.286c-1.262 0-2.286-1.023-2.286-2.286s1.023-2.286 2.286-2.286zM11.429 25.143h18.286c1.262 0 2.286 1.023 2.286 2.286s-1.023 2.286-2.286 2.286h-18.286c-1.262 0-2.286-1.023-2.286-2.286s1.023-2.286 2.286-2.286z"></path>
</svg>
