<!-- Generated by IcoMoon.io -->
<svg version="1.1" xmlns="http://www.w3.org/2000/svg" width="32" height="32" viewBox="0 0 32 32">
<title>italic</title>
<path fill="#666" d="M15.067 3.552c0.128-0.64 0.024-1.112-0.312-1.416s-1.016-0.52-2.040-0.648c-0.448-0.096-0.672-0.352-0.672-0.768 0-0.096 0.016-0.2 0.048-0.312s0.064-0.248 0.096-0.408c0.96 0.096 1.904 0.168 2.832 0.216s1.792 0.072 2.592 0.072c0.672 0 1.488-0.024 2.448-0.072s1.872-0.12 2.736-0.216c0.064 0.32 0.096 0.56 0.096 0.72 0 0.448-0.224 0.688-0.672 0.72-1.024 0.128-1.744 0.352-2.16 0.672s-0.688 0.8-0.816 1.44l-4.752 24.672c-0.128 0.64-0.016 1.104 0.336 1.392s1.072 0.512 2.16 0.672c0.416 0.096 0.624 0.336 0.624 0.72 0 0.192-0.032 0.448-0.096 0.768-0.96-0.096-1.936-0.168-2.928-0.216s-1.888-0.072-2.688-0.072c-0.672 0-1.48 0.024-2.424 0.072s-1.848 0.12-2.712 0.216c-0.064-0.32-0.096-0.576-0.096-0.768 0-0.384 0.192-0.608 0.576-0.672 1.024-0.16 1.76-0.392 2.208-0.696s0.736-0.776 0.864-1.416l4.752-24.672z"></path>
</svg>
