<!-- Generated by IcoMoon.io -->
<svg version="1.1" xmlns="http://www.w3.org/2000/svg" width="32" height="32" viewBox="0 0 32 32">
<title>justifyright</title>
<path fill="#666" d="M29.714 27.429h-27.429c-1.262 0-2.286 1.023-2.286 2.286s1.023 2.286 2.286 2.286h27.429c1.262 0 2.286-1.023 2.286-2.286s-1.023-2.286-2.286-2.286z"></path>
<path fill="#666" d="M29.714 9.143h-27.429c-1.262 0-2.286 1.023-2.286 2.286s1.023 2.286 2.286 2.286h27.429c1.262 0 2.286-1.023 2.286-2.286s-1.023-2.286-2.286-2.286z"></path>
<path fill="#666" d="M29.714 18.286h-13.714c-1.262 0-2.286 1.023-2.286 2.286s1.023 2.286 2.286 2.286h13.714c1.262 0 2.286-1.023 2.286-2.286s-1.023-2.286-2.286-2.286z"></path>
<path fill="#666" d="M29.714 0h-13.714c-1.262 0-2.286 1.023-2.286 2.286s1.023 2.286 2.286 2.286h13.714c1.262 0 2.286-1.023 2.286-2.286s-1.023-2.286-2.286-2.286z"></path>
</svg>
