<!-- Generated by IcoMoon.io -->
<svg version="1.1" xmlns="http://www.w3.org/2000/svg" width="32" height="32" viewBox="0 0 32 32">
<title>justifyleft</title>
<path fill="#666" d="M2.286 27.429h27.429c1.262 0 2.286 1.023 2.286 2.286s-1.023 2.286-2.286 2.286h-27.429c-1.262 0-2.286-1.023-2.286-2.286s1.023-2.286 2.286-2.286z"></path>
<path fill="#666" d="M2.286 9.143h27.429c1.262 0 2.286 1.023 2.286 2.286s-1.023 2.286-2.286 2.286h-27.429c-1.262 0-2.286-1.023-2.286-2.286s1.023-2.286 2.286-2.286z"></path>
<path fill="#666" d="M2.286 18.286h13.714c1.262 0 2.286 1.023 2.286 2.286s-1.023 2.286-2.286 2.286h-13.714c-1.262 0-2.286-1.023-2.286-2.286s1.023-2.286 2.286-2.286z"></path>
<path fill="#666" d="M2.286 0h13.714c1.262 0 2.286 1.023 2.286 2.286s-1.023 2.286-2.286 2.286h-13.714c-1.262 0-2.286-1.023-2.286-2.286s1.023-2.286 2.286-2.286z"></path>
</svg>
