<!-- Generated by IcoMoon.io -->
<svg version="1.1" xmlns="http://www.w3.org/2000/svg" width="32" height="32" viewBox="0 0 32 32">
<title>link</title>
<path fill="#666" d="M15.728 9.727l3.363-3.363c1.953-1.953 5.118-1.953 7.071 0s1.953 5.118 0 7.071l-3.429 3.429c-0.781 0.781-0.781 2.047 0 2.828s2.047 0.781 2.828 0l3.429-3.429c3.515-3.515 3.515-9.213 0-12.728s-9.213-3.515-12.728 0l-3.363 3.363c-0.781 0.781-0.781 2.047 0 2.828s2.047 0.781 2.828 0zM16.797 22.801c0.781-0.781 2.047-0.781 2.828 0s0.781 2.047 0 2.828l-3.362 3.362c-3.515 3.515-9.213 3.515-12.728 0s-3.515-9.213 0-12.728l3.36-3.36c0.781-0.781 2.047-0.781 2.828 0s0.781 2.047 0 2.828l-3.36 3.36c-1.953 1.953-1.953 5.118 0 7.071s5.118 1.953 7.071 0l3.362-3.362zM21.728 10.814v0c0.781 0.781 0.781 2.047 0 2.828l-8.485 8.485c-0.781 0.781-2.047 0.781-2.828 0s-0.781-2.047 0-2.828l8.485-8.485c0.781-0.781 2.047-0.781 2.828 0v0z"></path>
</svg>
