<!-- Generated by IcoMoon.io -->
<svg version="1.1" xmlns="http://www.w3.org/2000/svg" width="32" height="32" viewBox="0 0 32 32">
<title>image</title>
<path fill="#666" d="M15.177 23.969h10.87c0.343 0 0.681-0.088 0.981-0.257 0.963-0.542 1.304-1.761 0.763-2.724l-5.58-9.921c-0.18-0.319-0.443-0.583-0.763-0.763-0.963-0.542-2.182-0.2-2.724 0.763l-5.321 9.46-2.22-3.701c-0.169-0.282-0.405-0.517-0.686-0.686-0.947-0.568-2.176-0.261-2.744 0.686v0l-2.468 4.113c-0.186 0.311-0.285 0.666-0.285 1.029 0 1.105 0.895 2 2 2h8.177zM2 4h28c1.105 0 2 0.895 2 2v20c0 1.105-0.895 2-2 2h-28c-1.105 0-2-0.895-2-2v-20c0-1.105 0.895-2 2-2v0zM9 12c1.105 0 2-0.895 2-2s-0.895-2-2-2c-1.105 0-2 0.895-2 2s0.895 2 2 2z"></path>
</svg>
